<?xml version="1.0" standalone="no"?>
<!DOCTYPE svg PUBLIC "-//W3C//DTD SVG 20010904//EN"
 "http://www.w3.org/TR/2001/REC-SVG-20010904/DTD/svg10.dtd">
<svg version="1.0" xmlns="http://www.w3.org/2000/svg"
 width="772.000000pt" height="1280.000000pt" viewBox="0 0 772.000000 1280.000000"
 preserveAspectRatio="xMidYMid meet">
<metadata>
Created by potrace 1.15, written by Peter Selinger 2001-2017
</metadata>
<g transform="translate(0.000000,1280.000000) scale(0.100000,-0.100000)"
fill="#009688" stroke="none">
<path d="M2420 12344 c-25 -2 -425 -8 -890 -14 -689 -7 -861 -12 -930 -25 -47
-8 -132 -20 -190 -25 -131 -13 -195 -31 -239 -68 l-34 -28 -4 -119 c-7 -198 1
-205 337 -285 96 -23 222 -53 280 -67 257 -62 434 -171 498 -307 44 -93 74
-271 92 -556 8 -113 10 -1042 8 -2950 -2 -1532 -1 -2990 2 -3240 9 -780 3
-1567 -13 -2040 -9 -250 -22 -660 -28 -910 l-12 -455 -29 -82 c-38 -105 -77
-159 -133 -184 -85 -38 -488 -129 -858 -194 -86 -15 -100 -21 -117 -45 -37
-52 -60 -114 -60 -165 0 -84 6 -93 70 -113 52 -16 75 -16 276 -5 120 6 543 12
939 14 396 1 812 2 925 3 113 0 378 -6 589 -13 401 -14 468 -12 591 25 48 14
50 16 50 52 0 50 -27 171 -42 194 -8 12 -90 49 -218 97 -408 154 -634 264
-723 349 -48 47 -102 134 -127 207 -11 32 -30 125 -42 209 l-23 151 1 2080 c0
1144 4 2163 8 2265 l8 185 391 -1 c374 -1 395 -2 457 -22 123 -41 194 -115
306 -314 31 -55 71 -133 90 -173 18 -40 231 -630 473 -1311 242 -682 505
-1414 586 -1629 271 -719 527 -1429 748 -2070 l104 -300 39 -7 c49 -10 1225
-10 1722 -2 l372 7 0 143 0 143 -42 11 c-79 21 -340 110 -425 146 -226 93
-370 183 -511 318 -174 167 -262 294 -407 591 -227 462 -427 950 -853 2080
-193 512 -401 1061 -462 1220 -199 516 -500 1376 -500 1427 0 16 159 161 330
299 714 578 1070 1331 1120 2364 34 721 -104 1423 -391 1986 -177 347 -390
602 -657 787 -274 190 -663 296 -1297 353 -115 10 -1063 21 -1155 13z m719
-565 c391 -66 685 -222 982 -518 137 -137 219 -241 310 -395 182 -307 347
-884 390 -1360 16 -177 6 -569 -20 -756 -53 -390 -169 -787 -316 -1080 -171
-340 -437 -578 -780 -700 -190 -67 -567 -146 -810 -170 -60 -6 -198 -10 -305
-8 l-195 3 -7 280 c-4 154 -10 845 -13 1535 -3 690 -10 1406 -14 1590 -9 381
-6 1374 5 1497 l7 82 41 6 c195 29 535 27 725 -6z"/>
</g>
</svg>
